<svg height="512" viewBox="0 0 58 58" width="512" xmlns="http://www.w3.org/2000/svg"><g id="Page-1" fill="none" fill-rule="evenodd"><g id="002---Burgered" fill-rule="nonzero"><path id="Shape" d="m54.55 38.08c-.269553-.0567838-.5445546-.0836132-.82-.08-.7134904-.0027069-1.4192972.1473197-2.07.44-2.1633492.9770904-4.3880611 1.8121925-6.66 2.5-3.9045218 1.1876959-7.9294622 1.935664-12 2.23-9.1418018.6661827-18.305333-.9596051-26.66-4.73-.90352794-.4138571-1.91255297-.5395488-2.89-.36-2-3.84-1.12-7.91-.28-10.21 1.06180919.2510207 2.17693757.1419703 3.17-.31 14.4074257-6.5002154 30.9125743-6.5002154 45.32 0 .6507028.2926803 1.3565096.4427069 2.07.44.370604.0018264.7400316-.0418332 1.1-.13.84 2.3 1.75 6.37-.28 10.21z" fill="#802d40"/><path id="Shape" d="m57.56 25.9c-.5854577 1.0234168-1.5776946 1.7503303-2.73 2-.3599684.0881668-.729396.1318264-1.1.13-.7134904.0027069-1.4192972-.1473197-2.07-.44-14.4074257-6.5002154-30.9125743-6.5002154-45.32 0-.99306243.4519703-2.10819081.5610207-3.17.31-1.15230539-.2496697-2.14454227-.9765832-2.73-2-.29212552-.5187134-.44379168-1.1046963-.44-1.7.01342469-1.12394.46138896-2.1990543 1.25-3 1.82-11.95 13.55-21.2 27.75-21.2s25.93 9.25 27.75 21.24c1.2578342 1.2102187 1.5856753 3.0963172.81 4.66z" fill="#f29c1f"/><g fill="#e57e25"><path id="Shape" d="m23.08 6.28c-.4385565-.00338534-.8237305-.292132-.9499631-.71214224-.1262326-.42001025.0359373-.87325915.3999631-1.11785776l.83-.56c.2961053-.2227142.6910831-.26345362 1.0264139-.10586802.3353308.15758561.556046.48766424.5735644.85776299.0175183.37009874-.1710318.71954966-.4899783.90810503l-.83.56c-.1655373.11124285-.3605573.17044534-.56.17z"/><path id="Shape" d="m29 5.55c-.3326261.00050114-.6437296-.16442118-.83-.44-.1478952-.22124691-.2015002-.49231949-.1489477-.75320529.0525525-.26088581.2069274-.49006314.4289477-.63679471l.83-.55c.4568739-.27009557 1.0451676-.13622502 1.3401824.30496838.2950149.4411934.1939728 1.03600533-.2301824 1.35503162l-.84.56c-.1638098.10582233-.3549873.16143758-.55.16z"/><path id="Shape" d="m29 10c-.4385565-.00338534-.8237305-.292132-.9499631-.71214224-.1262326-.42001025.0359373-.87325915.3999631-1.11785776l.83-.56c.4611578-.30651804 1.083482-.18115777 1.39.28s.1811578 1.08348196-.28 1.39l-.84.55c-.1610428.11279204-.3533994.1722477-.55.17z"/><path id="Shape" d="m14.83 10.55c-.1950127.0014376-.3861902-.0541777-.55-.16l-.83-.56c-.4021248-.32391225-.4915129-.90072441-.206288-1.33115472.2852249-.4304303.8512619-.5729246 1.306288-.32884528l.84.55c.2203997.14830282.3727332.37820673.4233875.63898229.0506542.26077557-.0045341.53098947-.1533875.75101771-.1862704.2755788-.4973739.4405011-.83.44z"/><path id="Shape" d="m18.17 7.55c-.3326261.00050114-.6437296-.16442118-.83-.44-.1488534-.22002824-.2040417-.49024214-.1533875-.75101771.0506543-.26077556.2029878-.49067947.4233875-.63898229l.84-.55c.2955284-.2380487.7003343-.28831086 1.0451054-.12976408.3447712.15854677.570095.49858092.5817287.87788146.0116337.37930053-.1924276.73250452-.5268341.91188262l-.83.56c-.1638098.10582233-.3549873.16143758-.55.16z"/><path id="Shape" d="m40.17 7.55c-.3326261.00050114-.6437296-.16442118-.83-.44-.1488534-.22002824-.2040417-.49024214-.1533875-.75101771.0506543-.26077556.2029878-.49067947.4233875-.63898229l.84-.55c.4550261-.24407932 1.0210631-.10158502 1.306288.32884528.2852249.43043031.1958368 1.00724247-.206288 1.33115472l-.83.56c-.1638098.10582233-.3549873.16143758-.55.16z"/><path id="Shape" d="m24.83 10.55c-.1950127.0014376-.3861902-.0541777-.55-.16l-.83-.56c-.4021248-.32391225-.4915129-.90072441-.206288-1.33115472.2852249-.4304303.8512619-.5729246 1.306288-.32884528l.84.55c.2203997.14830282.3727332.37820673.4233875.63898229.0506542.26077557-.0045341.53098947-.1533875.75101771-.1862704.2755788-.4973739.4405011-.83.44z"/><path id="Shape" d="m35.92 6.28c-.1994427.00044534-.3944627-.05875715-.56-.17l-.83-.56c-.3189465-.18855537-.5074966-.53800629-.4899783-.90810503.0175184-.37009875.2382336-.70017738.5735644-.85776299.3353308-.1575856.7303086-.11684618 1.0264139.10586802l.83.56c.3640258.24459861.5261957.69784751.3999631 1.11785776-.1262326.42001024-.5114066.7087569-.9499631.71214224z"/><path id="Shape" d="m44.17 10.55c-.3326261.0005011-.6437296-.1644212-.83-.44-.1488534-.22002824-.2040417-.49024214-.1533875-.75101771.0506543-.26077556.2029878-.49067947.4233875-.63898229l.84-.55c.2955284-.2380487.7003343-.28831086 1.0451054-.12976408.3447712.15854677.570095.49858092.5817287.87788146.0116337.37930053-.1924276.73250452-.5268341.91188262l-.83.56c-.1638098.1058223-.3549873.1614376-.55.16z"/><path id="Shape" d="m34.17 10.55c-.3326261.0005011-.6437296-.1644212-.83-.44-.1488534-.22002824-.2040417-.49024214-.1533875-.75101771.0506543-.26077556.2029878-.49067947.4233875-.63898229l.84-.55c.2955284-.2380487.7003343-.28831086 1.0451054-.12976408.3447712.15854677.570095.49858092.5817287.87788146.0116337.37930053-.1924276.73250452-.5268341.91188262l-.83.56c-.1638098.1058223-.3549873.1614376-.55.16z"/><path id="Shape" d="m50 19c-.1950127.0014376-.3861902-.0541777-.55-.16-3.61-2.33-11.62-3.84-20.45-3.84s-16.84 1.51-20.4 3.84c-.46391919.3037566-1.08624339.1739192-1.39-.29s-.17391919-1.0862434.29-1.39c3.93-2.56 12.17-4.16 21.5-4.16s17.57 1.6 21.5 4.16c.3666201.2359973.5380749.6823292.42374 1.1030815-.1143349.4207524-.488101.7189263-.92374.7369185z"/></g><path id="Shape" d="m57.56 40.1c-.6430366-1.0889385-1.7475043-1.8252502-3-2-.269553-.0567838-.5445546-.0836132-.82-.08-.7134904-.0027069-1.4192972.1473197-2.07.44-2.1670938.9706957-4.3951493 1.7991182-6.67 2.48-3.9045218 1.1876959-7.9294622 1.935664-12 2.23-9.1418018.6661827-18.305333-.9596051-26.66-4.73-.90352794-.4138571-1.91255297-.5395488-2.89-.36-1.25249575.1747498-2.35696336.9110615-3 2-.29900702.5236373-.45425288 1.1170215-.45 1.72.02065768.9746797.37344742 1.9131004 1 2.66l.26.3c.00548455.0531923.00548455.1068077 0 .16 1.30287379 7.5998625 7.91947837 13.1369827 15.63 13.08h24.22c7.7067506.0520641 14.3177347-5.4838944 15.62-13.08-.0054845-.0531923-.0054845-.1068077 0-.16l.26-.3c1.0719521-1.1962608 1.2983979-2.9283723.57-4.36z" fill="#24ae5f"/><path id="Shape" d="m45 40.94v11.06c0 1.1045695-.8954305 2-2 2s-2-.8954305-2-2v-4c0-1.1045695-.8954305-2-2-2s-2 .8954305-2 2v2c-.0015826.9881131-.7245318 1.8269763-1.7015854 1.9744089-.9770535.1474326-1.9153382-.4407584-2.2084146-1.3844089-.0613928-.1905802-.0917797-.3897833-.09-.59v-6.83c4.0705378-.294336 8.0954782-1.0423041 12-2.23z" fill="#f3d55b"/><path id="Shape" d="m57 44.46-.26.3c-.0054845.0531923-.0054845.1068077 0 .16-1.3028738 7.5998625-7.9194784 13.1369827-15.63 13.08h-24.22c-7.70675061.0520641-14.31773467-5.4838944-15.62-13.08.00548455-.0531923.00548455-.1068077 0-.16l-.27-.3 4 3.04 4.3 3.38c.9759159.7607826 2.3440841.7607826 3.32 0 2.5441133-2.0103831 6.1358867-2.0103831 8.68 0 .9759159.7607826 2.3440841.7607826 3.32 0 2.4312879-1.9287906 5.8423081-2.0264809 8.38-.24h.09c.29516.9537151 1.248426 1.5437016 2.2336596 1.3824358.9852335-.1612659 1.7006507-1.0243873 1.6763404-2.0224358v-2c0-1.1045695.8954305-2 2-2s2 .8954305 2 2v4c0 1.1045695.8954305 2 2 2s2-.8954305 2-2v-1.36c.1195179.070858.2332098.1511111.34.24.9759159.7607826 2.3440841.7607826 3.32 0l4.34-3.38z" fill="#f29c1f"/><path id="Shape" d="m13.75 24.84-2.18 7.26c-.1085666.3621404-.4120827.632094-.7844152.6976753-.3723324.0655813-.7498184-.0844231-.9755848-.3876753l-3.6-4.8.13-.05c2.40096895-1.0846774 4.8774698-1.9937303 7.41-2.72z" fill="#f5efca"/><path id="Shape" d="m20.94 23.28-1.41 6.34c-.0904697.3934615-.4086617.693926-.8066582.7617166-.3979964.0677906-.7977163-.1103922-1.0133418-.4517166l-3.3-5.27c2.1450525-.5986123 4.3261626-1.0595513 6.53-1.38z" fill="#f5efca"/><path id="Shape" d="m35.94 23.13-2.94 5.87c-.1787683.355017-.5508253.5704513-.9477193.5487631-.3968939-.0216882-.7432611-.2763806-.8822807-.6487631l-2.17-5.9-2.2 5.85c-.1361956.3610952-.4680203.6115905-.8526133.6436399-.3845931.0320494-.7533022-.1600681-.9473867-.4936399l-2.91-5.82c4.5958561-.6040818 9.2499021-.6208835 13.85-.05z" fill="#f5efca"/><path id="Shape" d="m51.79 27.61-3.6 4.8c-.2257664.3032522-.6032524.4532566-.9755848.3876753-.3723325-.0655813-.6758486-.3355349-.7844152-.6976753l-2.18-7.26c2.5325302.7262697 5.009031 1.6353226 7.41 2.72z" fill="#f5efca"/><path id="Shape" d="m43.59 24.66-3.3 5.27c-.2156255.3413244-.6153454.5195072-1.0133418.4517166-.3979965-.0677906-.7161885-.3682551-.8066582-.7617166l-1.41-6.34c2.2038374.3204487 4.3849475.7813877 6.53 1.38z" fill="#f5efca"/><path id="Shape" d="m45.65 40.73c-10.833322 3.4410034-22.466678 3.4410034-33.3 0 1.06-2.57 4.78-8 16.65-3.73 11.87-4.24 15.59 1.16 16.65 3.73z" fill="#ff5364"/></g></g></svg>