<?xml version="1.0" encoding="iso-8859-1"?>
<!-- Generator: Adobe Illustrator 19.0.0, SVG Export Plug-In . SVG Version: 6.00 Build 0)  -->
<svg version="1.1" id="Layer_1" xmlns="http://www.w3.org/2000/svg" xmlns:xlink="http://www.w3.org/1999/xlink" x="0px" y="0px"
	 viewBox="0 0 512 512" style="enable-background:new 0 0 512 512;" xml:space="preserve">
<circle style="fill:#E16B5A;" cx="256" cy="256" r="256"/>
<path style="fill:#D16354;" d="M496.6,343.616c-0.088-0.236-0.172-0.468-0.28-0.696c-0.184-1.032-0.58-2.016-1.172-2.912
	c-0.132-0.412-0.3-0.8-0.484-1.18c-0.188-1.032-0.584-2.02-1.176-2.912c-0.132-0.412-0.296-0.796-0.484-1.18
	c-0.188-1.032-0.584-2.016-1.172-2.916c-0.132-0.408-0.3-0.796-0.48-1.176c-0.192-1.036-0.584-2.028-1.18-2.924
	c-0.124-0.404-0.296-0.78-0.476-1.164c-0.192-1.04-0.592-2.036-1.184-2.928c-0.128-0.408-0.292-0.784-0.476-1.164
	c-0.196-1.04-0.596-2.04-1.184-2.932c-0.124-0.4-0.288-0.776-0.468-1.152c-0.2-1.044-0.6-2.044-1.192-2.944
	c-0.128-0.408-0.3-0.788-0.48-1.172c-0.2-1.032-0.592-2.032-1.176-2.92c-0.128-0.416-0.3-0.804-0.488-1.188
	c-0.2-1.028-0.592-2.016-1.172-2.908c-0.132-0.416-0.304-0.812-0.492-1.204c-0.208-1.024-0.6-2.008-1.172-2.892
	c-0.132-0.416-0.304-0.812-0.492-1.204c-0.212-1.024-0.6-2.008-1.164-2.892c-0.14-0.428-0.32-0.836-0.508-1.232
	c-0.148-0.74-0.416-1.432-0.752-2.104c-0.168-1-0.548-1.968-1.148-2.852c-0.136-0.428-0.308-0.836-0.508-1.24
	c-0.172-1.008-0.548-1.98-1.156-2.864c-0.132-0.42-0.304-0.828-0.5-1.22c-0.172-1.016-0.556-1.992-1.16-2.88
	c-0.132-0.416-0.304-0.824-0.5-1.216c-0.176-1.016-0.56-1.996-1.16-2.884c-0.132-0.416-0.304-0.82-0.5-1.212
	c-0.176-1.016-0.564-2-1.164-2.884c-0.132-0.416-0.304-0.816-0.496-1.212c-0.18-1.016-0.568-2-1.16-2.884
	c-0.132-0.416-0.304-0.812-0.496-1.208c-0.18-1.02-0.568-2.004-1.168-2.896c-0.132-0.416-0.296-0.808-0.492-1.196
	c-0.184-1.024-0.572-2.008-1.168-2.9c-0.128-0.416-0.3-0.804-0.488-1.192c-0.184-1.028-0.58-2.012-1.172-2.904
	c-0.132-0.416-0.296-0.8-0.488-1.188c-0.188-1.024-0.584-2.012-1.172-2.908c-0.128-0.412-0.3-0.8-0.48-1.184
	c-0.192-1.028-0.584-2.02-1.18-2.912c-0.124-0.408-0.296-0.796-0.484-1.18c-0.188-1.032-0.584-2.024-1.172-2.916
	c-0.132-0.408-0.296-0.792-0.484-1.172c-0.192-1.036-0.584-2.028-1.18-2.92c-0.124-0.404-0.296-0.784-0.476-1.164
	c-0.188-1.04-0.588-2.036-1.18-2.932c-0.132-0.404-0.296-0.784-0.476-1.164c-0.196-1.04-0.596-2.036-1.188-2.932
	c-0.124-0.404-0.296-0.784-0.476-1.16c-0.196-1.04-0.596-2.036-1.18-2.932c-0.132-0.408-0.304-0.792-0.484-1.176
	c-0.204-1.032-0.596-2.024-1.18-2.916c-0.132-0.416-0.304-0.808-0.492-1.192c-0.196-1.028-0.592-2.016-1.164-2.904
	c-0.14-0.42-0.312-0.812-0.5-1.204c-0.148-0.748-0.416-1.46-0.76-2.14c-0.168-1-0.544-1.96-1.144-2.832
	c-0.132-0.436-0.312-0.852-0.516-1.256c-0.168-1-0.54-1.96-1.144-2.836c-0.136-0.432-0.312-0.848-0.512-1.252
	c-0.168-1.004-0.544-1.976-1.152-2.856c-0.136-0.428-0.308-0.836-0.508-1.24c-0.172-1.008-0.548-1.98-1.156-2.86
	c-0.136-0.424-0.308-0.832-0.504-1.228c-0.172-1.012-0.552-1.992-1.16-2.872c-0.128-0.42-0.3-0.824-0.5-1.216
	c-0.176-1.012-0.556-1.992-1.16-2.876c-0.132-0.42-0.304-0.82-0.5-1.216c-0.176-1.016-0.56-2-1.164-2.884
	c-0.132-0.416-0.304-0.816-0.496-1.208c-0.18-1.02-0.564-2-1.16-2.888c-0.132-0.416-0.304-0.812-0.5-1.2
	c-0.18-1.02-0.568-2.004-1.164-2.892c-0.132-0.416-0.304-0.804-0.492-1.192c-0.184-1.028-0.572-2.016-1.172-2.904
	c-0.132-0.412-0.296-0.804-0.484-1.192c-0.188-1.024-0.58-2.012-1.172-2.904c-0.132-0.412-0.304-0.8-0.484-1.184
	c-0.188-1.028-0.584-2.016-1.172-2.908c-0.132-0.412-0.304-0.8-0.484-1.184c-0.188-1.028-0.584-2.02-1.172-2.912
	c-0.132-0.412-0.304-0.796-0.484-1.18c-0.188-1.032-0.584-2.024-1.18-2.92c-0.132-0.404-0.296-0.788-0.476-1.168
	c-0.196-1.036-0.588-2.028-1.18-2.924c-0.128-0.404-0.296-0.784-0.484-1.164c-0.188-1.036-0.588-2.032-1.18-2.928
	c-0.124-0.404-0.292-0.784-0.472-1.164c-0.2-1.036-0.596-2.032-1.184-2.928c-0.124-0.408-0.292-0.788-0.476-1.168
	c-0.144-0.764-0.432-1.496-0.792-2.196c-0.156-0.988-0.524-1.932-1.128-2.8c-0.14-0.444-0.312-0.872-0.528-1.288
	c-0.164-0.992-0.532-1.94-1.136-2.812c-0.14-0.44-0.312-0.864-0.524-1.28c-0.164-0.992-0.532-1.944-1.132-2.816
	c-0.14-0.44-0.32-0.86-0.524-1.272c-0.168-1-0.54-1.96-1.14-2.832c-0.14-0.432-0.312-0.848-0.516-1.256
	c-0.172-1-0.548-1.968-1.148-2.844c-0.14-0.428-0.312-0.84-0.508-1.248c-0.172-1.004-0.552-1.976-1.156-2.852
	c-0.132-0.424-0.304-0.832-0.5-1.232c-0.172-1.012-0.552-1.988-1.156-2.868c-0.14-0.424-0.312-0.828-0.508-1.224
	c-0.172-1.012-0.552-1.992-1.156-2.876c-0.14-0.42-0.304-0.824-0.5-1.216c-0.18-1.016-0.56-1.996-1.164-2.88
	c-0.132-0.416-0.304-0.816-0.5-1.208c-0.172-1.016-0.56-1.996-1.156-2.88c-0.132-0.42-0.304-0.82-0.5-1.212
	c-0.18-1.02-0.564-2-1.164-2.888c-0.128-0.416-0.3-0.812-0.492-1.2c-0.18-1.02-0.572-2.004-1.172-2.896
	c-0.128-0.416-0.296-0.808-0.492-1.196c-0.18-1.024-0.572-2.008-1.164-2.9c-0.132-0.412-0.3-0.8-0.488-1.184
	c-0.184-1.028-0.576-2.016-1.176-2.912c-0.128-0.412-0.296-0.8-0.48-1.184c-0.192-1.028-0.584-2.016-1.176-2.908
	c-0.128-0.412-0.296-0.8-0.484-1.184c-0.188-1.028-0.584-2.02-1.176-2.916c-0.128-0.408-0.296-0.792-0.48-1.176
	c-0.192-1.032-0.584-2.024-1.18-2.92c-0.128-0.404-0.296-0.784-0.476-1.164c-0.192-1.036-0.584-2.032-1.18-2.928
	c-0.128-0.404-0.296-0.788-0.48-1.168c-0.376-2.02-1.524-3.9-3.36-5.148c-3.648-2.488-8.628-1.54-11.116,2.112L332.192,132H166.828
	c-0.004-0.012-0.012-0.028-0.016-0.044c-0.08-0.196-0.144-0.4-0.224-0.596c-0.416-1.12-0.876-2.22-1.392-3.304
	c-0.008-0.024-0.02-0.052-0.028-0.076c-0.084-0.212-0.152-0.428-0.24-0.636c-0.416-1.112-0.876-2.212-1.388-3.292
	c-0.016-0.044-0.036-0.084-0.048-0.132c-0.076-0.188-0.14-0.38-0.216-0.568c-0.252-0.676-0.476-1.356-0.764-2.02
	C157.84,104.424,142.392,92,124,92c-22.092,0-40,17.908-40,40c0,4.764,0.876,9.32,2.408,13.556c0.584,2.028,1.332,3.98,2.216,5.856
	c0.476,1.404,1.036,2.764,1.664,4.088c0.476,1.4,1.032,2.756,1.66,4.08c0.476,1.4,1.032,2.752,1.656,4.076
	c0.476,1.396,1.028,2.748,1.652,4.068c0.48,1.408,1.04,2.768,1.668,4.096c0.476,1.396,1.032,2.752,1.656,4.072
	c0.476,1.4,1.036,2.756,1.66,4.08c0.476,1.392,1.028,2.744,1.648,4.064c0.48,1.404,1.04,2.768,1.668,4.096
	c0.476,1.4,1.036,2.756,1.66,4.084c0.476,1.392,1.028,2.744,1.652,4.06c0.476,1.404,1.036,2.764,1.664,4.092
	c0.476,1.4,1.032,2.756,1.66,4.08c0.476,1.4,1.036,2.76,1.66,4.084c0.476,1.392,1.028,2.74,1.648,4.056
	c0.48,1.404,1.04,2.768,1.664,4.096c0.476,1.4,1.032,2.752,1.656,4.076c0.076,0.22,0.16,0.432,0.24,0.652
	c0.584,2.024,1.332,3.972,2.212,5.844c0.48,1.408,1.04,2.772,1.668,4.1c0.476,1.396,1.032,2.752,1.656,4.072
	c0.476,1.4,1.032,2.756,1.656,4.08c0.476,1.392,1.032,2.744,1.652,4.064c0.48,1.408,1.04,2.772,1.668,4.104
	c0.476,1.396,1.032,2.752,1.656,4.072c0.476,1.392,1.028,2.744,1.648,4.06c0.48,1.404,1.04,2.76,1.664,4.088
	c0.476,1.404,1.036,2.756,1.66,4.084c0.48,1.4,1.036,2.76,1.66,4.084c0.476,1.396,1.028,2.748,1.648,4.064
	c0.48,1.404,1.036,2.764,1.664,4.092c0.48,1.4,1.036,2.752,1.66,4.084c0.476,1.4,1.032,2.752,1.656,4.076
	c0.476,1.4,1.032,2.752,1.652,4.072c0.476,1.404,1.036,2.756,1.66,4.084c0.076,0.22,0.164,0.436,0.24,0.656
	c0.584,2.032,1.332,3.98,2.216,5.856c0.476,1.396,1.032,2.752,1.652,4.068c0.48,1.408,1.04,2.764,1.668,4.096
	c0.476,1.404,1.032,2.752,1.656,4.076c0.476,1.396,1.028,2.748,1.648,4.064c0.476,1.408,1.036,2.764,1.664,4.092
	c0.476,1.404,1.036,2.756,1.66,4.084c0.476,1.404,1.036,2.76,1.66,4.084c0.476,1.396,1.028,2.748,1.648,4.064
	c0.48,1.408,1.036,2.764,1.664,4.092c0.476,1.4,1.032,2.752,1.656,4.08c0.476,1.4,1.032,2.756,1.66,4.08
	c0.476,1.4,1.028,2.752,1.652,4.072c0.48,1.408,1.036,2.764,1.664,4.084c0.476,1.404,1.036,2.756,1.66,4.084
	c0.476,1.396,1.028,2.748,1.652,4.068c0.48,1.408,1.04,2.768,1.664,4.096c0.476,1.404,1.036,2.752,1.66,4.084
	c0.076,0.22,0.164,0.432,0.24,0.656c0.584,2.016,1.328,3.96,2.208,5.828c0.476,1.412,1.036,2.768,1.664,4.096
	c0.476,1.4,1.032,2.752,1.656,4.084c0.48,1.404,1.036,2.76,1.664,4.084c0.476,1.388,1.028,2.744,1.648,4.052
	c0.476,1.412,1.04,2.768,1.664,4.1c0.476,1.396,1.036,2.752,1.656,4.076c0.476,1.4,1.036,2.756,1.66,4.084
	c0.476,1.396,1.032,2.752,1.652,4.072c0.48,1.404,1.036,2.76,1.664,4.084c0.476,1.404,1.036,2.76,1.66,4.084
	c0.476,1.392,1.028,2.744,1.648,4.064c0.48,1.408,1.04,2.764,1.664,4.092c0.48,1.4,1.036,2.756,1.66,4.084
	c0.476,1.396,1.032,2.752,1.656,4.072c0.476,1.392,1.028,2.744,1.652,4.064c0.48,1.408,1.036,2.768,1.664,4.096
	c0.076,0.232,0.164,0.448,0.244,0.668c0.584,2.024,1.332,3.972,2.216,5.848c0.476,1.396,1.028,2.748,1.648,4.06
	c0.144,0.428,0.308,0.844,0.468,1.264h-14c-4.416,0-8,3.584-8,8c0,1.288,0.332,2.484,0.872,3.564
	c-0.008,0.148-0.044,0.288-0.044,0.436c0,1.872,0.668,3.572,1.748,4.936c0.176,1.5,0.76,2.872,1.66,4
	c0.176,1.508,0.76,2.872,1.656,4c0.176,1.508,0.76,2.872,1.656,4c0.176,1.5,0.76,2.872,1.652,4c0.18,1.5,0.76,2.872,1.656,4
	c0.18,1.508,0.764,2.872,1.656,4c0.18,1.508,0.764,2.872,1.656,4c0.18,1.5,0.76,2.872,1.656,4c0.176,1.5,0.76,2.872,1.66,4
	c0.088,0.756,0.284,1.484,0.568,2.156C222.208,510.288,238.904,512,256,512C366.608,512,460.82,441.848,496.6,343.616z"/>
<polygon style="fill:#F5F5F5;" points="256,280 380,132 124,132 240,280 "/>
<circle style="fill:#198058;" cx="124" cy="132" r="40"/>
<g>
	<path style="fill:#FFD464;" d="M124,160c-15.44,0-28-12.56-28-28h28V160z"/>
	<path style="fill:#FFD464;" d="M124,104c15.44,0,28,12.56,28,28h-28V104z"/>
</g>
<g>
	<path style="opacity:0.2;fill:#F5F5F5;enable-background:new    ;" d="M148.656,163.456C157.984,156.132,164,144.78,164,132h-40
		L148.656,163.456z"/>
	<path style="fill:#F5F5F5;" d="M248,468c-4.416,0-8-3.584-8-8V276c0-4.416,3.584-8,8-8s8,3.584,8,8v184
		C256,464.416,252.416,468,248,468z"/>
	<path style="fill:#F5F5F5;" d="M300,468H196c-4.416,0-8-3.584-8-8s3.584-8,8-8h104c4.416,0,8,3.584,8,8S304.416,468,300,468z"/>
</g>
<polygon style="fill:#70CCBD;" points="256,280 333.8,188 167.4,188 240,280 "/>
<circle style="fill:#CC584C;" cx="232" cy="240" r="8"/>
<path style="fill:#FFD464;" d="M251.992,272c-1.552,0-3.116-0.444-4.496-1.392c-3.652-2.484-4.596-7.46-2.112-11.112l128-188
	c2.488-3.652,7.468-4.596,11.116-2.112c3.652,2.488,4.592,7.464,2.108,11.116l-128,188C257.064,270.772,254.552,272,251.992,272z"/>
<circle style="fill:#CC584C;" cx="260" cy="248" r="8"/>
<g style="opacity:0.3;">
	<polygon style="fill:#F5F5F5;" points="202.724,206.504 228.696,200.736 221.848,192 191.356,192 	"/>
	<polygon style="fill:#F5F5F5;" points="243.076,219.08 231.96,204.9 205.988,210.668 222.604,231.872 	"/>
</g>
<g>
</g>
<g>
</g>
<g>
</g>
<g>
</g>
<g>
</g>
<g>
</g>
<g>
</g>
<g>
</g>
<g>
</g>
<g>
</g>
<g>
</g>
<g>
</g>
<g>
</g>
<g>
</g>
<g>
</g>
</svg>
