<svg height="512" viewBox="0 0 52 59" width="512" xmlns="http://www.w3.org/2000/svg"><g id="027---Fly-Around-The-World" fill="none"><path id="Shape" d="m29.34 15.32-5.34-.21c-9.3792581 1.0309311-16.37641076 9.1204685-16.04542082 18.5504074s7.87810802 17.0089738 17.30656612 17.3797559c9.4284581.370782 17.547452-6.5921699 18.6179551-15.9669938 1.0705031-9.374824-5.2697672-17.9888669-14.5391004-19.7531695z" fill="#285680"/><path id="Shape" d="m35.32 48.39c-4.3694275 2.6461645-9.6578181 3.30991-14.545658 1.8256245-4.88784-1.4842855-8.9141581-4.9766194-11.074342-9.6056245 2.03-1.08 8.01-3.72 11.3.39 4 5 6 5 8 5 1.68 0 4.79 0 6.32 2.39z" fill="#4fba6f"/><path id="Shape" d="m17.04 28.36c-2.31 5.39-7 4.85-9.03 4.32.10337592-5.9867925 3.1818615-11.5288165 8.21-14.78 2.030006 3.1218221 2.3387334 7.0599784.82 10.46z" fill="#4fba6f"/><path id="Shape" d="m43.91 34.78c-5.73 4.15-10.91 1.68-10.91-2.78 0-4-2.08-6.19-5.01-4.89-1.99.89-3.99-.11-3.99-2.11 0-1.768 1.562-2.308 1.93-5l.06-4.81 3.35.13c9.1634065 1.7345868 15.4858229 10.1789398 14.57 19.46z" fill="#4fba6f"/><path id="Shape" d="m38.935 9.506c.1523888.5978395.0203321 1.2325489-.3578601 1.7199965-.3781921.4874476-.9601848.7730687-1.5771399.7740035h-5.382c-.3786657.0002022-.7247365.2142706-.894.553l-3.439 6.887c-.1712369.3430232-.5216112.5598294-.905.56h-1.38c-.5522847 0-1-.4477153-1-1v-6c0-.5522847-.4477153-1-1-1h-5.382c-.3786657.0002022-.7247365.2142706-.894.553l-.448.894c-.1692635.3387294-.5153343.5527978-.894.553h-1.382c-.5522847 0-1-.4477153-1-1v-6c0-.55228475.4477153-1 1-1h1.382c.3786657.00020222.7247365.21427059.894.553l.448.894c.1692635.33872941.5153343.55279778.894.553h5.382c.5522847 0 1-.44771525 1-1v-6c0-.55228475.4477153-1 1-1h1.38c.3833888.00017056.7337631.2169768.905.56l3.439 6.887c.1692635.33872941.5153343.55279778.894.553h5.272c.9442592-.01966932 1.7835842.59843505 2.045 1.506z" fill="#3b97d3"/><g fill="#e64c3c"><path id="Shape" d="m26 59c-8.371287-.0129171-16.22566776-4.0505604-21.10786496-10.8507636-4.8821972-6.8002033-6.19652877-15.5332664-3.53213504-23.4692364.11432499-.3385091.40055811-.5903128.75087813-.6605591.35032001-.0702462.71150497.0517371.9475.32s.31094686.64205.19662187.9805591c-3.03411291 9.0101062-.46359463 18.9618714 6.55444171 25.3755304 7.01803629 6.413659 17.16044529 8.0800126 25.86164389 4.2489555s14.3207064-12.4372367 14.3289144-21.9444859c0-.5522847.4477153-1 1-1s1 .4477153 1 1c-.0159821 14.3527783-11.6472217 25.9840179-26 26z"/><circle id="Oval" cx="9" cy="14" r="1"/><circle id="Oval" cx="6" cy="17" r="1"/><circle id="Oval" cx="4" cy="21" r="1"/></g></g></svg>